<svg xmlns="http://www.w3.org/2000/svg" width="26" height="26" fill="none" viewBox="0 0 26 26">
  <path fill="#272727" fill-rule="evenodd" d="M0 2.438a.812.812 0 0 1 .813-.813H3.25a.812.812 0 0 1 .788.616l.658 2.634h18.867a.812.812 0 0 1 .796.972l-1.625 8.125a.812.812 0 0 1-.756.651l-15.27.767.466 2.485h13.951a.812.812 0 1 1 0 1.625H6.5a.812.812 0 0 1-.798-.663L3.266 5.861l-.65-2.611H.812A.812.812 0 0 1 0 2.437ZM5.04 6.5l1.366 7.278 14.859-.745L22.57 6.5H5.041Zm3.085 13a3.25 3.25 0 1 0 0 6.5 3.25 3.25 0 0 0 0-6.5Zm11.375 0a3.25 3.25 0 1 0 0 6.5 3.25 3.25 0 0 0 0-6.5ZM8.125 21.125a1.625 1.625 0 1 0 0 3.25 1.625 1.625 0 0 0 0-3.25Zm11.375 0a1.625 1.625 0 1 0 0 3.25 1.625 1.625 0 0 0 0-3.25Z" clip-rule="evenodd"/>
</svg>
