<svg xmlns="http://www.w3.org/2000/svg" width="26" height="26" fill="none" viewBox="0 0 26 26">
  <path fill="#272727" fill-rule="evenodd" d="M23.625 25.75s2.125 0 2.125-2.125-2.125-8.5-12.75-8.5S.25 21.5.25 23.625s2.125 2.125 2.125 2.125h21.25Zm-21.24-2.006v-.004.004Zm.037-.119h21.156a.736.736 0 0 0 .03-.004l.017-.005c-.002-.522-.327-2.095-1.768-3.535-1.386-1.386-3.993-2.831-8.857-2.831-4.866 0-7.471 1.445-8.857 2.83-1.44 1.441-1.764 3.014-1.768 3.537l.047.008Zm21.194.119v-.004.004ZM13 10.875a4.25 4.25 0 1 0 0-8.5 4.25 4.25 0 0 0 0 8.5Zm6.375-4.25a6.375 6.375 0 1 1-12.75 0 6.375 6.375 0 0 1 12.75 0Z" clip-rule="evenodd"/>
</svg>
